HIERARCHY
ROOT Hips
{
	OFFSET 0.000000 0.000000 0.000000
	CHANNELS 6 Xposition Yposition Zposition Zrotation Yrotation Xrotation 
	JOINT LHipJoint
	{
		OFFSET 0.000000 0.000000 0.000000
		CHANNELS 3 Zrotation Yrotation Xrotation
		JOINT LeftUpLeg
		{
			OFFSET 1.363060 -1.794630 0.839290
			CHANNELS 3 Zrotation Yrotation Xrotation
			JOINT LeftLeg
			{
				OFFSET 2.448110 -6.726130 0.000000
				CHANNELS 3 Zrotation Yrotation Xrotation
				JOINT LeftFoot
				{
					OFFSET 2.562200 -7.039590 0.000000
					CHANNELS 3 Zrotation Yrotation Xrotation
					JOINT LeftToeBase
					{
						OFFSET 0.157640 -0.433110 2.322550
						CHANNELS 3 Zrotation Yrotation Xrotation
						End Site
						{
							OFFSET 0.000000 0.000000 0.000000
						}
					}
				}
			}
		}
	}
	JOINT RHipJoint
	{
		OFFSET 0.000000 0.000000 0.000000
		CHANNELS 3 Zrotation Yrotation Xrotation
		JOINT RightUpLeg
		{
			OFFSET -1.305520 -1.794630 0.839290
			CHANNELS 3 Zrotation Yrotation Xrotation
			JOINT RightLeg
			{
				OFFSET -2.542530 -6.985550 0.000000
				CHANNELS 3 Zrotation Yrotation Xrotation
				JOINT RightFoot
				{
					OFFSET -2.568260 -7.056230 0.000000
					CHANNELS 3 Zrotation Yrotation Xrotation
					JOINT RightToeBase
					{
						OFFSET -0.164730 -0.452590 2.363150
						CHANNELS 3 Zrotation Yrotation Xrotation
						End Site
						{
							OFFSET 0.000000 0.000000 0.000000
						}
					}
				}
			}
		}
	}
	JOINT LowerBack
	{
		OFFSET 0.000000 0.000000 0.000000
		CHANNELS 3 Zrotation Yrotation Xrotation
		JOINT Spine
		{
			OFFSET 0.028270 2.035590 -0.193380
			CHANNELS 3 Zrotation Yrotation Xrotation
			JOINT Spine1
			{
				OFFSET 0.056720 2.048850 -0.042750
				CHANNELS 3 Zrotation Yrotation Xrotation
				JOINT Neck
				{
					OFFSET 0.000000 0.000000 0.000000
					CHANNELS 3 Zrotation Yrotation Xrotation
					JOINT Neck1
					{
						OFFSET -0.054170 1.746240 0.172020
						CHANNELS 3 Zrotation Yrotation Xrotation
						JOINT Head
						{
							OFFSET 0.104070 1.761360 -0.123970
							CHANNELS 3 Zrotation Yrotation Xrotation
							End Site
							{
								OFFSET 0.000000 0.000000 0.000000
							}
						}
					}
				}
				JOINT LeftShoulder
				{
					OFFSET 0.000000 0.000000 0.000000
					CHANNELS 3 Zrotation Yrotation Xrotation
					JOINT LeftArm
					{
						OFFSET 3.362410 1.200890 -0.311210
						CHANNELS 3 Zrotation Yrotation Xrotation
						JOINT LeftForeArm
						{
							OFFSET 4.983000 -0.000000 -0.000000
							CHANNELS 3 Zrotation Yrotation Xrotation
							JOINT LeftHand
							{
								OFFSET 3.483560 -0.000000 -0.000000
								CHANNELS 3 Zrotation Yrotation Xrotation
								JOINT LeftFingerBase
								{
									OFFSET 0.000000 0.000000 0.000000
									CHANNELS 3 Zrotation Yrotation Xrotation
									JOINT LeftHandIndex1
									{
										OFFSET 0.715260 -0.000000 -0.000000
										CHANNELS 3 Zrotation Yrotation Xrotation
										End Site
										{
											OFFSET 0.000000 0.000000 0.000000
										}
									}
								}
								JOINT LThumb
								{
									OFFSET 0.000000 0.000000 0.000000
									CHANNELS 3 Zrotation Yrotation Xrotation
									End Site
									{
										OFFSET 0.000000 0.000000 0.000000
									}
								}
							}
						}
					}
				}
				JOINT RightShoulder
				{
					OFFSET 0.000000 0.000000 0.000000
					CHANNELS 3 Zrotation Yrotation Xrotation
					JOINT RightArm
					{
						OFFSET -3.136600 1.374050 -0.404650
						CHANNELS 3 Zrotation Yrotation Xrotation
						JOINT RightForeArm
						{
							OFFSET -5.241900 -0.000000 -0.000000
							CHANNELS 3 Zrotation Yrotation Xrotation
							JOINT RightHand
							{
								OFFSET -3.444170 -0.000000 -0.000000
								CHANNELS 3 Zrotation Yrotation Xrotation
								JOINT RightFingerBase
								{
									OFFSET 0.000000 0.000000 0.000000
									CHANNELS 3 Zrotation Yrotation Xrotation
									JOINT RightHandIndex1
									{
										OFFSET -0.622530 -0.000000 -0.000000
										CHANNELS 3 Zrotation Yrotation Xrotation
										End Site
										{
											OFFSET 0.000000 0.000000 0.000000
										}
									}
								}
								JOINT RThumb
								{
									OFFSET 0.000000 0.000000 0.000000
									CHANNELS 3 Zrotation Yrotation Xrotation
									End Site
									{
										OFFSET 0.000000 0.000000 0.000000
									}
								}
							}
						}
					}
				}
			}
		}
	}
}
MOTION
Frames: 10
Frame Time: 0.008333
8.998662 16.597030 14.525409 -171.513627 20.998619 -158.494457 5.139447 2.663564 0.555205 -11.040607 -11.927624 -50.944269 7.065900 17.257450 51.012465 1.058591 -1.427430 -20.209438 8.573400 -16.525200 -54.602600 -9.403393 -4.226363 -2.702787 16.206185 13.615037 5.381090 -17.456205 -17.826868 84.587545 -52.574890 46.475098 163.777707 -0.131100 2.334200 -6.430100 -1.684043 7.152829 3.443540 -0.353327 9.332302 -4.319358 3.645422 4.693193 1.789472 -6.108837 -4.521134 -12.661377 7.561489 -5.462072 19.725219 2.375900 -1.646300 8.359800 -1.662630 -3.655999 2.300720 -29.723207 18.047105 40.898420 12.115356 -23.635840 -3.914865 -1.434617 1.323601 2.172382 38.497442 -20.364698 -17.106500 -7.125000 0.000000 0.000000 6.920300 2.911400 -6.608900 3.609668 4.059321 1.519286 36.978961 10.189322 30.496526 -27.227364 41.107459 -11.297759 1.645685 0.650522 -2.620262 -11.743097 -38.674934 8.523900 7.125000 0.000000 0.000000 29.828500 -67.494200 -16.727100 
8.949365 16.563453 14.358592 -172.330068 18.931085 -159.378943 5.230361 2.541344 0.402201 -12.389028 -13.959228 -49.237929 7.028602 17.111412 50.773467 1.125322 -2.680485 -20.765913 8.409500 -16.412300 -54.024600 -9.590682 -3.889777 -2.372107 17.014781 15.515105 5.136516 -14.810558 -17.113675 76.609552 -38.164972 27.462790 -144.704086 -0.403200 4.076600 -11.292300 -1.642990 6.493622 3.573463 -0.074929 8.527582 -4.222809 4.223739 4.258173 1.995833 -6.485650 -4.792889 -12.325250 7.668479 -5.766507 20.179269 2.455100 -1.770800 8.452500 -1.621226 -3.725407 2.287533 -30.584101 16.722951 41.686171 13.075472 -24.729636 -4.297927 -1.352973 1.307418 1.990806 38.572075 -20.545580 -17.237200 -7.125000 0.000000 0.000000 6.873800 2.685100 -6.592500 3.684918 4.051473 1.674917 37.227253 7.448284 30.029994 -25.190175 39.548165 -10.198166 1.597968 0.593915 -1.588876 -11.182278 -36.592621 7.759700 7.125000 0.000000 0.000000 27.739000 -65.561100 -14.266300 
8.891835 16.551904 14.211666 -173.461042 16.963426 -160.296963 5.313632 2.511735 0.353523 -14.088604 -16.221404 -47.535792 6.948253 16.930354 50.375234 1.140562 -3.921801 -20.888128 8.077000 -16.175600 -52.839700 -9.647748 -3.790531 -2.250443 17.222971 17.170879 3.794900 -13.185731 -16.831783 71.752625 -36.949174 32.993805 -138.176826 -0.056200 1.530100 -4.208800 -1.742657 5.744708 3.696324 0.091642 7.580438 -4.132690 4.462388 3.751339 2.276119 -6.684570 -4.963583 -11.953811 7.753516 -5.956539 20.629699 2.518300 -1.832400 8.522500 -1.547722 -3.789497 2.283386 -31.727934 15.174465 41.660052 14.036935 -25.771995 -4.686571 -1.253923 1.288701 1.914829 38.408578 -20.709606 -17.207800 -7.125000 0.000000 0.000000 6.679400 2.561000 -6.418600 3.616885 4.059453 1.796198 38.892248 4.338612 27.853417 -23.418177 38.381074 -9.618261 1.510908 0.709772 -0.839921 -7.472220 -40.374439 5.903800 7.125000 0.000000 0.000000 37.497800 -67.671700 -21.613400 
8.831311 16.576712 14.084308 -174.872818 15.456097 -161.418961 5.398714 2.485607 0.278609 -16.288067 -18.142664 -45.532618 6.851407 16.734111 49.918626 1.129117 -4.776437 -20.786105 7.864000 -16.018300 -52.071200 -9.706432 -3.650031 -2.047119 16.411362 18.936995 0.553899 -12.115207 -16.689714 67.788671 -33.474013 29.253528 -128.724957 -0.518000 4.613000 -12.807900 -2.319717 4.960496 4.081544 0.210983 6.615175 -4.007143 4.746793 3.215787 2.483044 -6.825005 -4.993567 -11.446939 7.692099 -5.952302 20.945437 2.523400 -1.824500 8.494500 -1.462797 -3.876138 2.292014 -33.251031 13.305819 40.974824 14.773735 -26.520612 -4.981441 -1.163618 1.283199 1.752468 38.265594 -20.939926 -17.249800 -7.125000 0.000000 0.000000 6.485200 2.332200 -6.256600 3.499113 4.074534 1.911310 40.951140 1.842065 25.191823 -21.347911 36.794124 -8.757113 1.507101 0.577040 -0.306205 -9.654005 -40.589297 7.359300 7.125000 0.000000 0.000000 35.311600 -68.383100 -20.777700 
8.762873 16.630500 13.980690 -176.087360 14.418651 -162.381761 5.486780 2.445377 0.157538 -18.474945 -19.403564 -43.518559 6.659260 16.472261 49.130756 1.103127 -5.039564 -20.524594 7.848500 -16.006700 -52.015300 -9.823325 -3.495129 -1.764019 15.238519 21.504743 -4.227002 -10.913563 -16.643120 63.834413 -33.382350 23.821047 -129.752989 -0.642900 5.129600 -14.278600 -2.716670 4.239440 4.466773 0.265856 5.726655 -3.855572 4.754176 2.718558 2.747193 -6.871124 -4.839054 -10.646207 7.590964 -5.732875 20.976976 2.521700 -1.739300 8.272500 -1.356667 -4.001510 2.327729 -34.941303 10.888216 39.780730 15.152709 -26.811760 -5.090741 -1.085867 1.260690 1.861620 37.720755 -20.195743 -16.385700 -7.125000 0.000000 0.000000 6.262100 3.395900 -5.916100 3.269067 4.097810 2.004026 44.079253 -1.122323 21.437401 -20.456085 36.181331 -8.479782 1.511675 0.281238 0.175918 -14.259782 -38.566034 9.977600 7.125000 0.000000 0.000000 26.579700 -67.849000 -15.007300 
8.688448 16.709203 13.899100 -177.083738 13.258142 -163.621556 5.567266 2.412597 -0.013804 -20.723208 -20.170422 -40.771185 6.294093 16.032566 47.660685 1.037759 -5.107219 -19.897717 7.876600 -16.027700 -52.116900 -9.963949 -3.361559 -1.427237 13.293781 23.307135 -11.575622 -9.505771 -16.833258 60.652210 -36.892873 28.616782 -139.270208 -0.000200 0.084100 -0.231100 -2.704328 3.336730 5.332910 0.359540 4.646039 -3.610370 4.552584 2.130020 3.116291 -6.721401 -4.547368 -10.516123 7.081493 -5.240277 21.302668 2.341400 -1.528000 8.286100 -1.212235 -4.121620 2.357692 -37.009887 8.117780 37.688735 15.386986 -26.956375 -5.200045 -1.021355 1.346225 2.925611 39.234889 -21.275564 -18.056500 -7.125000 0.000000 0.000000 6.906400 1.549700 -6.766900 3.005107 4.182644 2.064049 47.392812 -3.654822 17.581238 -19.792364 35.852961 -8.475207 1.451948 0.178558 0.455357 -15.958132 -41.823585 11.766100 7.125000 0.000000 0.000000 29.645900 -70.977600 -18.881000 
8.614771 16.793467 13.843922 -177.913070 12.205091 -165.153207 5.624601 2.395651 -0.213089 -22.982710 -20.301020 -37.569341 5.865253 15.496652 45.882625 0.949696 -5.145818 -19.046388 7.887500 -16.035900 -52.156600 -10.097199 -3.256862 -1.064781 11.390735 24.415986 -20.112269 -9.218419 -17.526559 60.166073 -38.593848 25.038637 -146.419961 -0.414800 4.134300 -11.454800 -2.550443 2.334007 6.684463 0.499804 3.493440 -3.287548 4.386553 1.528656 3.458293 -6.914565 -4.101431 -10.069233 6.567959 -4.549022 21.198409 2.227700 -1.289300 8.073200 -1.054046 -4.275053 2.407105 -39.362992 4.926178 35.085078 15.516844 -26.947331 -5.246246 -0.958985 1.390195 4.427869 40.381205 -20.949753 -18.535200 -7.125000 0.000000 0.000000 7.631500 1.507500 -7.495400 2.735231 4.262165 2.135486 50.645391 -5.784523 13.355089 -19.337677 35.535809 -8.408690 1.388502 -0.015695 3.253156 -13.972820 -42.598321 10.480500 7.125000 0.000000 0.000000 33.264300 -70.844600 -21.242300 
8.553925 16.859765 13.811200 -178.928972 11.411821 -166.878754 5.652983 2.417202 -0.396394 -25.431456 -19.930036 -34.390068 5.462891 14.954344 44.144891 0.858949 -5.207754 -18.138561 7.878100 -16.028900 -52.122600 -10.174352 -3.190143 -0.715923 8.998827 25.609798 -29.239839 -9.933009 -18.699610 62.556725 -40.049284 21.315992 -154.253192 -0.779800 5.637900 -15.737400 -2.870487 1.317119 8.229149 0.643768 2.351642 -2.960155 4.484821 0.935385 3.696751 -7.020001 -3.496187 -9.415765 5.775038 -3.619660 20.938814 1.980200 -0.947600 7.743100 -0.882238 -4.441638 2.461848 -41.790748 1.313918 33.248278 15.997622 -27.265428 -5.373751 -0.947485 1.307468 4.386416 40.036014 -17.674445 -15.839100 -7.125000 0.000000 0.000000 8.111500 5.652200 -7.348900 2.504128 4.374549 2.212319 53.591808 -8.173505 10.894775 -19.321714 35.603105 -8.414069 1.341092 -0.243846 3.360469 -16.157905 -40.408682 11.443200 7.125000 0.000000 0.000000 26.561600 -69.554900 -16.001100 
8.509548 16.906495 13.795374 179.528218 10.753473 -169.143408 5.686713 2.556953 -0.523836 -28.543455 -19.124141 -30.883068 5.088137 14.389256 42.440528 0.774978 -5.362396 -17.258797 7.915700 -16.056900 -52.258600 -10.206971 -3.281430 -0.424590 5.937517 26.501448 -38.612697 -12.316761 -20.058976 68.195245 -39.799798 0.285742 176.127411 -11.712100 -18.266300 65.073300 -4.071006 0.281976 10.315373 0.735988 1.204112 -2.594400 4.907348 0.332474 3.809184 -7.066222 -2.746359 -8.743091 4.978748 -2.506652 20.606248 1.701800 -0.496900 7.395800 -0.711660 -4.611316 2.500500 -44.279718 -2.706771 30.757474 16.519736 -27.647964 -5.616779 -0.813956 1.391408 3.967909 40.303665 -20.054327 -17.803900 -7.125000 0.000000 0.000000 7.669300 2.553300 -7.387400 2.292584 4.527228 2.297719 56.364798 -10.488287 8.446567 -19.338926 35.717449 -8.505351 1.284032 -0.345983 3.712848 -13.977201 -42.008709 10.253000 7.125000 0.000000 0.000000 31.687100 -70.107500 -19.667700 
8.482815 16.931518 13.804143 177.708570 9.608874 -171.509824 5.664234 2.602838 -0.637823 -31.706612 -18.338601 -27.640876 4.835829 13.906259 41.161233 0.683560 -5.856465 -16.336129 7.849800 -16.007600 -52.019800 -10.044316 -3.067967 -0.235218 2.728015 26.514305 -46.278103 -15.375621 -21.306059 76.659160 -38.666986 -6.289868 -164.247762 -11.801500 -18.305500 65.358400 -5.749797 -0.797381 12.820165 0.788562 -0.039969 -2.286480 5.454374 -0.334262 3.675171 -7.031339 -2.003660 -8.332834 4.428310 -1.433222 20.345999 1.479300 -0.023100 7.169600 -0.520978 -4.817210 2.518378 -46.676520 -7.200947 28.268729 17.588839 -28.529564 -6.066095 -0.712173 1.388683 3.702965 39.752280 -19.462932 -17.021600 -7.125000 0.000000 0.000000 7.390000 3.421900 -6.995200 2.053839 4.706265 2.359373 59.455240 -12.914933 6.538470 -19.603383 36.065578 -8.668592 1.242288 -0.495538 3.004542 -13.947777 -42.487800 10.270700 7.125000 0.000000 0.000000 32.316400 -70.335100 -20.243700 
